<svg xmlns="http://www.w3.org/2000/svg" viewBox="0 0 1200 108" width="1200" height="108" role="img" aria-label="ABOUT section">
<style>
.sw{animation:sw 5.5s ease-in-out infinite;transform-box:fill-box;transform-origin:0 50%}
@keyframes sw{0%,100%{transform:rotate(-6deg)}50%{transform:rotate(6deg)}}
.dash{stroke-dasharray:900;stroke-dashoffset:900;animation:dash 1.6s ease forwards}
@keyframes dash{to{stroke-dashoffset:0}}
@media(prefers-reduced-motion:reduce){*{animation:none!important}.dash{stroke-dashoffset:0}}
</style><defs><pattern id="th" width="7" height="7" patternUnits="userSpaceOnUse"><circle cx="3.5" cy="3.5" r="1.15" fill="#e7eefa" fill-opacity=".13"/></pattern></defs>
<path d="M0,18 L26,18 L14,92 L0,92 Z" fill="#e8b866"/>
<path d="M32,18 L44,18 L32,92 L20,92 Z" fill="#e8b866" fill-opacity=".45"/>
<path d="M63.8 62H63.3L75.8 32.6L76.3 32.4L86.9 62H83.3L80 52.8H67.8ZM74.5 37.1 67.9 52.3H79.9Z M94.8 32.9Q99.7 32.6 103.5 32.6Q113.8 32.6 113.8 39.5Q113.8 42.1 112.3 44Q110.8 45.9 107.5 46.5Q110.7 46.9 112.5 48.5Q114.4 50 114.4 53.9Q114.4 62 104 62H94.8ZM98.3 61.6H104Q107.7 61.6 109.3 59.6Q110.9 57.7 110.9 53.6Q110.9 49.6 109.3 48.3Q107.7 46.9 104.5 46.8H98.3ZM103.5 33Q101 33 98.3 33.3V46.4H104.5Q110.5 46.2 110.5 39.6Q110.5 36.4 108.7 34.7Q106.9 33 103.5 33Z M121.7 48Q121.7 40.4 125.4 36.4Q129.2 32.4 135 32.4Q140.8 32.4 144.3 35.9Q147.8 39.3 147.8 46.9Q147.8 54.4 144.1 58.3Q140.4 62.2 134.2 62.2Q128.9 62.2 125.5 59.1Q123.7 57.5 122.7 54.7Q121.7 51.8 121.7 48ZM134.9 32.9Q130.6 32.9 127.9 36.6Q125.2 40.4 125.2 47.7Q125.2 55 127.8 58.4Q130.3 61.7 134.6 61.7Q138.9 61.7 141.6 57.9Q144.3 54.1 144.3 46.9Q144.3 39.7 141.7 36.3Q139.1 32.9 134.9 32.9Z M176.8 32.6H177.3V49.4Q177.3 56 174.7 59.1Q172.1 62.2 167.9 62.2Q165.3 62.2 163.4 61.7Q161.6 61.2 159.9 59.9Q156.6 57.3 156.6 49.4V32.6H160.1V49.4Q160.1 57 162.4 59.6Q163.6 60.8 164.8 61.3Q166.1 61.7 167.9 61.7Q172 61.7 174.4 58.8Q176.8 55.8 176.8 49.4Z M195.9 62H192.4V33H185.1V32.6H203.2V33H195.9Z" fill="#e7eefa"/>
<path d="M67.7 77.9H69.2V91.3H67.7ZM64.8 81.2H71.9V82.6H64.8ZM67.8 81.8 68.7 82.2Q68.4 83.1 68 84Q67.6 84.9 67.2 85.8Q66.7 86.8 66.2 87.6Q65.7 88.4 65.2 88.9Q65.1 88.6 64.8 88.2Q64.6 87.8 64.4 87.5Q64.9 87 65.4 86.3Q65.9 85.6 66.3 84.9Q66.8 84.1 67.1 83.3Q67.5 82.5 67.8 81.8ZM70.7 76.6 71.8 77.7Q70.9 78.1 69.8 78.4Q68.6 78.7 67.5 78.9Q66.3 79.1 65.1 79.3Q65.1 79 65 78.7Q64.8 78.3 64.7 78.1Q65.8 77.9 66.9 77.7Q68 77.5 69 77.2Q70 76.9 70.7 76.6ZM69.1 83.3Q69.3 83.4 69.7 83.8Q70.1 84.1 70.5 84.5Q71 85 71.3 85.3Q71.7 85.7 71.9 85.8L70.9 87Q70.7 86.7 70.4 86.3Q70.1 85.9 69.7 85.4Q69.3 85 68.9 84.6Q68.6 84.2 68.3 84ZM74 76.8 75.7 77.1Q75.5 78.7 75.2 80.4Q74.9 82.1 74.5 83.8Q74.1 85.5 73.7 87Q73.4 88.6 73 89.8L71.5 89.5Q71.9 88.2 72.3 86.7Q72.6 85.1 73 83.4Q73.3 81.7 73.6 80Q73.8 78.3 74 76.8ZM70.2 89.1Q71.2 89 72.5 88.9Q73.8 88.8 75.3 88.6Q76.8 88.5 78.3 88.3L78.3 89.7Q76.9 89.9 75.5 90.1Q74.1 90.3 72.9 90.4Q71.6 90.6 70.5 90.7ZM75.7 84.7 77.1 84.3Q77.7 85.4 78.2 86.5Q78.6 87.7 79 88.8Q79.4 90 79.5 90.8L77.9 91.3Q77.8 90.5 77.5 89.3Q77.1 88.2 76.7 87Q76.2 85.8 75.7 84.7Z M91.1 79Q91.8 79.1 92.7 79.2Q93.6 79.2 94.5 79.2Q95.4 79.2 96.3 79.2Q97.2 79.1 97.8 79V80.6Q97.1 80.7 96.2 80.8Q95.4 80.8 94.5 80.8Q93.5 80.8 92.7 80.8Q91.8 80.7 91.1 80.6ZM92 85.7Q91.9 86.1 91.8 86.4Q91.8 86.8 91.8 87.1Q91.8 87.4 91.9 87.6Q92 87.9 92.3 88Q92.6 88.2 93.1 88.3Q93.5 88.4 94.3 88.4Q95.4 88.4 96.3 88.3Q97.3 88.2 98.3 88L98.3 89.7Q97.5 89.8 96.5 89.9Q95.5 90 94.2 90Q92.2 90 91.2 89.3Q90.3 88.7 90.3 87.5Q90.3 87.1 90.3 86.6Q90.4 86.1 90.5 85.5ZM88.3 77.9Q88.2 78 88.2 78.2Q88.1 78.5 88 78.7Q88 78.9 88 79.1Q87.9 79.5 87.8 80.1Q87.7 80.6 87.6 81.3Q87.5 81.9 87.4 82.6Q87.3 83.3 87.2 84Q87.2 84.6 87.2 85.1Q87.2 85.5 87.2 86Q87.2 86.4 87.3 86.8Q87.4 86.5 87.5 86.2Q87.7 85.8 87.8 85.4Q88 85.1 88.1 84.8L88.9 85.4Q88.7 86 88.5 86.8Q88.2 87.5 88 88.1Q87.9 88.8 87.8 89.2Q87.7 89.3 87.7 89.5Q87.7 89.8 87.7 89.9Q87.7 90 87.7 90.2Q87.7 90.4 87.7 90.5L86.3 90.6Q86 89.8 85.9 88.4Q85.7 87 85.7 85.4Q85.7 84.5 85.8 83.6Q85.8 82.7 86 81.8Q86.1 81 86.2 80.2Q86.3 79.5 86.4 79Q86.4 78.7 86.5 78.4Q86.5 78 86.5 77.7Z M104.7 81.5Q105.2 81.4 105.6 81.3Q106.1 81.1 106.6 81Q107.1 80.8 107.9 80.6Q108.6 80.3 109.6 80.1Q110.5 79.8 111.5 79.6Q112.5 79.4 113.4 79.4Q114.8 79.4 115.9 80Q117 80.5 117.7 81.4Q118.3 82.4 118.3 83.8Q118.3 85 117.9 85.9Q117.5 86.8 116.7 87.5Q115.9 88.2 114.8 88.7Q113.7 89.2 112.4 89.5Q111 89.8 109.4 89.9L108.7 88.2Q110.3 88.2 111.7 87.9Q113.1 87.7 114.2 87.1Q115.3 86.6 115.9 85.8Q116.6 84.9 116.6 83.8Q116.6 83 116.2 82.4Q115.8 81.7 115.1 81.3Q114.4 81 113.3 81Q112.6 81 111.7 81.1Q110.8 81.3 109.9 81.6Q109 81.9 108.1 82.2Q107.3 82.5 106.6 82.8Q105.9 83.1 105.4 83.2Z M127.3 78.7Q127.3 78.9 127.3 79.3Q127.2 79.6 127.2 79.9Q127.2 80.2 127.2 80.4Q127.2 81 127.2 81.6Q127.2 82.2 127.2 82.8Q127.2 83.4 127.3 84.1Q127.4 85.3 127.7 86.3Q127.9 87.2 128.3 87.7Q128.7 88.3 129.3 88.3Q129.6 88.3 129.8 88Q130.1 87.7 130.4 87.2Q130.6 86.7 130.8 86.2Q131 85.6 131.1 85L132.4 86.5Q131.9 87.9 131.4 88.7Q130.9 89.5 130.4 89.9Q129.8 90.2 129.2 90.2Q128.4 90.2 127.7 89.7Q127 89.1 126.4 87.8Q125.9 86.6 125.7 84.5Q125.6 83.8 125.6 83Q125.5 82.1 125.5 81.4Q125.5 80.7 125.5 80.2Q125.5 79.9 125.5 79.4Q125.5 79 125.4 78.7ZM135.5 79.1Q136 79.7 136.4 80.4Q136.8 81.2 137.1 82Q137.5 82.9 137.7 83.8Q138 84.7 138.2 85.6Q138.3 86.4 138.4 87.2L136.8 87.9Q136.7 86.8 136.4 85.7Q136.2 84.6 135.9 83.5Q135.5 82.3 135 81.4Q134.6 80.4 133.9 79.7Z M144.6 79.2Q145.1 79.2 145.5 79.2Q145.9 79.1 146.1 79.1Q146.5 79.1 147.3 79Q148 78.9 148.9 78.9Q149.9 78.8 150.9 78.7Q152 78.6 153.1 78.5Q153.9 78.4 154.7 78.4Q155.5 78.3 156.2 78.3Q156.9 78.2 157.5 78.2L157.5 79.8Q157.1 79.8 156.5 79.8Q155.9 79.9 155.4 79.9Q154.8 79.9 154.4 80.1Q153.6 80.3 152.9 80.8Q152.3 81.3 151.8 82Q151.3 82.7 151.1 83.4Q150.8 84.2 150.8 84.9Q150.8 85.8 151.1 86.4Q151.4 87.1 152 87.5Q152.5 88 153.2 88.3Q153.9 88.6 154.6 88.7Q155.4 88.8 156.2 88.9L155.6 90.6Q154.7 90.5 153.8 90.3Q152.8 90.1 152 89.6Q151.2 89.2 150.6 88.6Q149.9 88 149.6 87.1Q149.2 86.3 149.2 85.2Q149.2 84 149.6 83Q150 82 150.6 81.2Q151.3 80.4 151.9 80Q151.4 80.1 150.7 80.2Q150 80.2 149.2 80.3Q148.4 80.4 147.6 80.5Q146.8 80.6 146.1 80.7Q145.3 80.8 144.8 81Z" fill="#93a8c8"/>
<path class="dash" d="M238.422,52 L1104,52" stroke="rgba(163,196,255,.18)" stroke-width="1.6" fill="none"/>
<rect x="238.422" y="66" width="865.578" height="16" fill="url(#th)" opacity=".7"/>
<g transform="translate(1116,48)"><g class="sw" transform="scale(0.95)"><path d="M0,0 C6.2,-9.4 20,-11.6 26.4,-6.2 C18,-4 8,-1.9 0,0 Z" fill="#63b378"/><path d="M0,0 C8,-1.9 18,-4 26.4,-6.2 C20.4,3.4 6.4,7.4 0,0 Z" fill="#458a58"/><path d="M1,-0.2 C9,-2.4 18,-4.4 25.6,-6.2" fill="none" stroke="#2b6140" stroke-opacity=".55" stroke-width="1.1"/></g></g>
<g transform="translate(1154,64) scale(-1,1)"><g class="sw" transform="scale(0.7)"><path d="M0,0 C6.2,-9.4 20,-11.6 26.4,-6.2 C18,-4 8,-1.9 0,0 Z" fill="#63b378"/><path d="M0,0 C8,-1.9 18,-4 26.4,-6.2 C20.4,3.4 6.4,7.4 0,0 Z" fill="#458a58"/><path d="M1,-0.2 C9,-2.4 18,-4.4 25.6,-6.2" fill="none" stroke="#2b6140" stroke-opacity=".55" stroke-width="1.1"/></g></g>
</svg>